<svg width="44" height="44" viewBox="0 0 44 44" fill="none" xmlns="http://www.w3.org/2000/svg">
<path d="M16.5 28.875C16.5 28.5103 16.6449 28.1606 16.9027 27.9027C17.1606 27.6449 17.5103 27.5 17.875 27.5H26.125C26.4897 27.5 26.8394 27.6449 27.0973 27.9027C27.3551 28.1606 27.5 28.5103 27.5 28.875C27.5 29.2397 27.3551 29.5894 27.0973 29.8473C26.8394 30.1051 26.4897 30.25 26.125 30.25H17.875C17.5103 30.25 17.1606 30.1051 16.9027 29.8473C16.6449 29.5894 16.5 29.2397 16.5 28.875ZM11 20.625C11 20.2603 11.1449 19.9106 11.4027 19.6527C11.6606 19.3949 12.0103 19.25 12.375 19.25H31.625C31.9897 19.25 32.3394 19.3949 32.5973 19.6527C32.8551 19.9106 33 20.2603 33 20.625C33 20.9897 32.8551 21.3394 32.5973 21.5973C32.3394 21.8551 31.9897 22 31.625 22H12.375C12.0103 22 11.6606 21.8551 11.4027 21.5973C11.1449 21.3394 11 20.9897 11 20.625ZM5.5 12.375C5.5 12.0103 5.64487 11.6606 5.90273 11.4027C6.16059 11.1449 6.51033 11 6.875 11H37.125C37.4897 11 37.8394 11.1449 38.0973 11.4027C38.3551 11.6606 38.5 12.0103 38.5 12.375C38.5 12.7397 38.3551 13.0894 38.0973 13.3473C37.8394 13.6051 37.4897 13.75 37.125 13.75H6.875C6.51033 13.75 6.16059 13.6051 5.90273 13.3473C5.64487 13.0894 5.5 12.7397 5.5 12.375Z" fill="#FFFAF7"/>
</svg>
