<svg width="48" height="48" viewBox="0 0 48 48" fill="none" xmlns="http://www.w3.org/2000/svg">
<path fill-rule="evenodd" clip-rule="evenodd" d="M24 48C37.2548 48 48 37.2548 48 24C48 10.7452 37.2548 0 24 0C10.7452 0 0 10.7452 0 24C0 37.2548 10.7452 48 24 48ZM20.0424 23.9999C20.0424 21.8208 21.8207 20.0426 23.9998 20.0426C26.1788 20.0426 27.9571 21.8208 27.9571 23.9999C27.9571 26.179 26.1788 27.9572 23.9998 27.9572C21.8207 27.9572 20.0424 26.179 20.0424 23.9999ZM35.8693 23.4005C35.869 23.6001 35.8688 23.7999 35.8688 23.9999C35.8688 24.2236 35.8691 24.447 35.8695 24.6702C35.8716 26.0822 35.8737 27.4858 35.7916 28.8983C35.6996 30.7983 35.2691 32.4816 33.8768 33.874C32.4874 35.2633 30.8012 35.6968 28.9012 35.7888C27.465 35.8696 26.038 35.868 24.6021 35.8664C24.4025 35.8662 24.2027 35.866 24.0027 35.866C23.8031 35.866 23.6037 35.8662 23.4044 35.8664C21.9704 35.868 20.5431 35.8696 19.1043 35.7888C17.2043 35.6968 15.521 35.2663 14.1287 33.874C12.7393 32.4846 12.3059 30.7983 12.2138 28.8983C12.133 27.4621 12.1346 26.0328 12.1362 24.5983C12.1364 24.3989 12.1366 24.1995 12.1366 23.9999C12.1366 23.8003 12.1364 23.6008 12.1362 23.4015C12.1346 21.9676 12.133 20.5402 12.2138 19.1015C12.3059 17.2015 12.7363 15.5182 14.1287 14.1258C15.518 12.7365 17.2043 12.303 19.1043 12.211C20.5404 12.1302 21.9674 12.1318 23.4033 12.1334C23.6029 12.1336 23.8027 12.1338 24.0027 12.1338C24.2023 12.1338 24.4018 12.1336 24.6011 12.1334C26.035 12.1318 27.4624 12.1302 28.9012 12.211C30.8012 12.303 32.4844 12.7335 33.8768 14.1258C35.2662 15.5152 35.6996 17.2015 35.7916 19.1015C35.8724 20.5376 35.8708 21.9646 35.8693 23.4005ZM17.9108 23.9999C17.9108 27.3694 20.6302 30.0888 23.9998 30.0888C27.3693 30.0888 30.0887 27.3694 30.0887 23.9999C30.0887 20.6304 27.3693 17.911 23.9998 17.911C20.6302 17.911 17.9108 20.6304 17.9108 23.9999ZM28.916 17.6616C28.916 18.4483 29.5513 19.0837 30.338 19.0837C30.5248 19.0839 30.7099 19.0473 30.8825 18.9759C31.0551 18.9045 31.212 18.7998 31.3441 18.6677C31.4762 18.5356 31.5809 18.3787 31.6523 18.2061C31.7237 18.0334 31.7603 17.8484 31.7601 17.6616C31.7601 16.8749 31.1248 16.2396 30.338 16.2396C29.5513 16.2396 28.916 16.8749 28.916 17.6616Z" fill="#FFFAF7"/>
</svg>
