<svg width="187" height="64" viewBox="0 0 187 64" fill="none" xmlns="http://www.w3.org/2000/svg">
<path fill-rule="evenodd" clip-rule="evenodd" d="M34.446 38.8903C33.5447 40.088 32.3991 41.1262 31.009 42.0047C31.839 42.7075 32.5145 43.4718 33.0357 44.2976C33.8252 45.5284 34.3515 46.7894 34.6147 48.0807C34.8778 49.372 35.0094 50.6028 35.0094 51.773C35.0094 54.053 34.3009 56.1211 32.8839 57.9773C31.4872 59.8335 29.5034 61.3064 26.9326 62.396C24.3821 63.4653 21.3558 64 17.8539 64C15.7284 64 13.6536 63.7377 11.6293 63.2131C9.60506 62.6684 7.76299 61.8714 6.10311 60.8222C4.46347 59.7528 3.0971 58.4313 2.00401 56.8575C0.910912 55.2636 0.24291 53.4073 0 51.2888H7.65166C7.97554 52.7617 8.61318 54.0025 9.56457 55.0113C10.516 56.0202 11.7002 56.7869 13.1171 57.3115C14.5543 57.8361 16.1231 58.0984 17.8235 58.0984C19.6453 58.0984 21.285 57.8562 22.7424 57.372C24.2201 56.8878 25.3841 56.1816 26.2343 55.2535C27.1047 54.3253 27.5399 53.1854 27.5399 51.8335C27.5399 50.6431 27.2261 49.6343 26.5986 48.8071C25.9711 47.9798 25.0906 47.3039 23.957 46.7793C22.8436 46.2346 21.538 45.8008 20.0401 45.4779L16.8364 44.7817C15.6037 44.6549 14.3887 44.4364 13.1914 44.1261C12.6811 43.9888 12.1825 43.8355 11.6954 43.6661C8.56253 42.9851 6.07091 41.7126 4.22056 39.8487C2.31776 37.9319 1.34613 35.3796 1.30564 32.1917C1.2854 29.5486 1.98376 27.2484 3.40074 25.2913C4.38091 23.9428 5.60116 22.8054 7.0615 21.8792C6.60571 21.5339 6.17941 21.1614 5.7826 20.7617C3.87981 18.8449 2.90817 16.2926 2.86769 13.1047C2.84744 10.4615 3.54581 8.16141 4.96278 6.20429C6.4 4.22699 8.3534 2.70366 10.823 1.6343C13.2926 0.544767 16.086 0 19.2034 0C22.847 0 25.9138 0.595208 28.4036 1.78562C30.9136 2.95586 32.8063 4.52963 34.0816 6.50694C35.3771 8.48424 36.035 10.6532 36.0552 13.0139H28.5858C28.4036 11.2787 27.8773 9.8966 27.0068 8.86759C26.1567 7.83859 25.0636 7.10215 23.7276 6.65826C22.3916 6.21438 20.9139 5.99244 19.2945 5.99244C18.0799 5.99244 16.9463 6.13367 15.8937 6.41614C14.8411 6.69861 13.9201 7.11223 13.1306 7.657C12.3412 8.20177 11.7238 8.86759 11.2784 9.65448C10.8533 10.4212 10.6408 11.2989 10.6408 12.2875C10.6408 13.6999 11.1064 14.8499 12.0375 15.7377C12.9889 16.6053 14.7601 17.3417 17.3512 17.947L25.2458 19.7024C27.6951 20.1866 29.6687 20.913 31.1667 21.8815C32.6646 22.8499 33.8083 23.9596 34.5978 25.2106C35.3872 26.4414 35.9135 27.7024 36.1767 28.9937C36.4398 30.285 36.5714 31.5158 36.5714 32.686C36.5714 34.966 35.8629 37.034 34.446 38.8903ZM18.9773 39.2636C25.2659 39.2636 30.3637 35.8761 30.3637 31.6974C30.3637 27.5187 25.2659 24.1312 18.9773 24.1312C12.6888 24.1312 7.59093 27.5187 7.59093 31.6974C7.59093 35.8761 12.6888 39.2636 18.9773 39.2636Z" fill="#FFFAF7"/>
<path d="M16.6234 28.2597C16.6234 27.3417 17.3676 26.5974 18.2857 26.5974C19.2038 26.5974 19.9481 27.3417 19.9481 28.2597V34.9091C19.9481 35.8272 19.2038 36.5714 18.2857 36.5714C17.3676 36.5714 16.6234 35.8272 16.6234 34.9091V28.2597Z" fill="#FFFAF7"/>
<path d="M61.1848 44.32C60.0434 44.32 58.9234 44.176 57.8248 43.888C56.7261 43.6 55.7234 43.168 54.8168 42.592C53.9101 42.016 53.1581 41.296 52.5608 40.432C51.9741 39.568 51.6221 38.5547 51.5048 37.392H56.2888C56.4488 38.096 56.7528 38.688 57.2008 39.168C57.6488 39.648 58.2141 40.016 58.8968 40.272C59.5794 40.528 60.3368 40.656 61.1688 40.656C62.0221 40.656 62.8008 40.5493 63.5048 40.336C64.2088 40.1227 64.7741 39.8027 65.2008 39.376C65.6274 38.9387 65.8408 38.3947 65.8408 37.744C65.8408 37.1573 65.6648 36.6773 65.3128 36.304C64.9714 35.9307 64.5074 35.6267 63.9208 35.392C63.3341 35.1573 62.6674 34.9653 61.9208 34.816L57.9208 34C56.1714 33.6693 54.7848 32.976 53.7608 31.92C52.7368 30.8533 52.2088 29.4347 52.1768 27.664C52.1661 26.2133 52.5501 24.96 53.3288 23.904C54.1181 22.8373 55.1848 22.016 56.5288 21.44C57.8834 20.864 59.3981 20.576 61.0728 20.576C63.0674 20.576 64.7421 20.8907 66.0968 21.52C67.4621 22.1387 68.4968 22.9813 69.2008 24.048C69.9154 25.104 70.2834 26.2827 70.3048 27.584H65.6168C65.5314 26.7733 65.2861 26.128 64.8808 25.648C64.4754 25.168 63.9528 24.8213 63.3128 24.608C62.6834 24.3947 61.9634 24.288 61.1528 24.288C60.5341 24.288 59.9688 24.3573 59.4568 24.496C58.9554 24.6347 58.5288 24.832 58.1768 25.088C57.8248 25.3333 57.5528 25.6267 57.3608 25.968C57.1688 26.3093 57.0728 26.6933 57.0728 27.12C57.0728 27.792 57.2968 28.336 57.7448 28.752C58.1928 29.168 59.0301 29.5093 60.2568 29.776L64.2248 30.592C65.6434 30.8693 66.7688 31.28 67.6008 31.824C68.4434 32.368 69.0728 32.9813 69.4888 33.664C69.9154 34.3467 70.1928 35.0453 70.3208 35.76C70.4594 36.464 70.5288 37.1147 70.5288 37.712C70.5288 38.96 70.1341 40.0853 69.3448 41.088C68.5661 42.08 67.4781 42.8693 66.0808 43.456C64.6834 44.032 63.0514 44.32 61.1848 44.32Z" fill="#FFFAF7"/>
<path d="M77.7448 36.8C77.7341 37.6427 77.8674 38.3787 78.1448 39.008C78.4221 39.6267 78.8221 40.1067 79.3448 40.448C79.8781 40.7787 80.5181 40.944 81.2648 40.944C82.0648 40.944 82.7634 40.7733 83.3608 40.432C83.9688 40.0907 84.3901 39.5307 84.6248 38.752H88.8328C88.6514 39.9253 88.1821 40.928 87.4248 41.76C86.6781 42.592 85.7714 43.2267 84.7048 43.664C83.6381 44.1013 82.5288 44.32 81.3768 44.32C79.7448 44.32 78.3048 43.9787 77.0568 43.296C75.8194 42.6027 74.8541 41.6267 74.1608 40.368C73.4674 39.1093 73.1208 37.6267 73.1208 35.92C73.1208 34.2667 73.4354 32.7787 74.0648 31.456C74.6941 30.1227 75.6061 29.072 76.8008 28.304C78.0061 27.5253 79.4514 27.136 81.1368 27.136C82.8221 27.136 84.2354 27.4933 85.3768 28.208C86.5288 28.912 87.3928 29.8987 87.9688 31.168C88.5554 32.4267 88.8488 33.8827 88.8488 35.536V36.8H77.7448ZM77.7288 34.016H84.4808C84.4808 33.3547 84.3581 32.7467 84.1128 32.192C83.8674 31.6373 83.4941 31.2 82.9928 30.88C82.5021 30.56 81.8834 30.4 81.1368 30.4C80.4114 30.4 79.7928 30.576 79.2808 30.928C78.7794 31.2693 78.3954 31.7173 78.1288 32.272C77.8621 32.8267 77.7288 33.408 77.7288 34.016Z" fill="#FFFAF7"/>
<path d="M96.7985 44.32C95.7425 44.32 94.7932 44.1227 93.9505 43.728C93.1078 43.3333 92.4412 42.7627 91.9505 42.016C91.4598 41.2587 91.2145 40.3413 91.2145 39.264C91.2145 37.4507 91.8918 36.0747 93.2465 35.136C94.6012 34.1867 96.7399 33.696 99.6625 33.664L101.727 33.632V32.64C101.727 31.8827 101.503 31.3013 101.055 30.896C100.617 30.48 99.9345 30.2773 99.0065 30.288C98.3238 30.2987 97.6732 30.4587 97.0545 30.768C96.4465 31.0773 96.0305 31.616 95.8065 32.384H91.9185C91.9825 31.1893 92.3292 30.208 92.9585 29.44C93.5879 28.6613 94.4412 28.0853 95.5185 27.712C96.6065 27.328 97.8385 27.136 99.2145 27.136C100.911 27.136 102.271 27.3493 103.295 27.776C104.319 28.192 105.06 28.7947 105.519 29.584C105.977 30.3627 106.207 31.2907 106.207 32.368V44H102.303L101.919 41.152C101.353 42.3467 100.644 43.1733 99.7905 43.632C98.9479 44.0907 97.9505 44.32 96.7985 44.32ZM98.3665 41.248C98.7932 41.248 99.2038 41.1733 99.5985 41.024C100.004 40.864 100.361 40.656 100.671 40.4C100.991 40.1333 101.247 39.8347 101.439 39.504C101.631 39.1733 101.727 38.832 101.727 38.48V36.032L100.047 36.064C99.2679 36.0747 98.5425 36.1707 97.8705 36.352C97.1985 36.5227 96.6545 36.8053 96.2385 37.2C95.8332 37.5947 95.6305 38.128 95.6305 38.8C95.6305 39.568 95.8972 40.1707 96.4305 40.608C96.9638 41.0347 97.6092 41.248 98.3665 41.248Z" fill="#FFFAF7"/>
<path d="M119.622 44.32C118.481 44.32 117.361 44.176 116.262 43.888C115.164 43.6 114.161 43.168 113.254 42.592C112.348 42.016 111.596 41.296 110.998 40.432C110.412 39.568 110.06 38.5547 109.942 37.392H114.726C114.886 38.096 115.19 38.688 115.638 39.168C116.086 39.648 116.652 40.016 117.334 40.272C118.017 40.528 118.774 40.656 119.606 40.656C120.46 40.656 121.238 40.5493 121.942 40.336C122.646 40.1227 123.212 39.8027 123.638 39.376C124.065 38.9387 124.278 38.3947 124.278 37.744C124.278 37.1573 124.102 36.6773 123.75 36.304C123.409 35.9307 122.945 35.6267 122.358 35.392C121.772 35.1573 121.105 34.9653 120.358 34.816L116.358 34C114.609 33.6693 113.222 32.976 112.198 31.92C111.174 30.8533 110.646 29.4347 110.614 27.664C110.604 26.2133 110.988 24.96 111.766 23.904C112.556 22.8373 113.622 22.016 114.966 21.44C116.321 20.864 117.836 20.576 119.51 20.576C121.505 20.576 123.18 20.8907 124.534 21.52C125.9 22.1387 126.934 22.9813 127.638 24.048C128.353 25.104 128.721 26.2827 128.742 27.584H124.054C123.969 26.7733 123.724 26.128 123.318 25.648C122.913 25.168 122.39 24.8213 121.75 24.608C121.121 24.3947 120.401 24.288 119.59 24.288C118.972 24.288 118.406 24.3573 117.894 24.496C117.393 24.6347 116.966 24.832 116.614 25.088C116.262 25.3333 115.99 25.6267 115.798 25.968C115.606 26.3093 115.51 26.6933 115.51 27.12C115.51 27.792 115.734 28.336 116.182 28.752C116.63 29.168 117.468 29.5093 118.694 29.776L122.662 30.592C124.081 30.8693 125.206 31.28 126.038 31.824C126.881 32.368 127.51 32.9813 127.926 33.664C128.353 34.3467 128.63 35.0453 128.758 35.76C128.897 36.464 128.966 37.1147 128.966 37.712C128.966 38.96 128.572 40.0853 127.782 41.088C127.004 42.08 125.916 42.8693 124.518 43.456C123.121 44.032 121.489 44.32 119.622 44.32Z" fill="#FFFAF7"/>
<path d="M132.53 44V20.224H137.17V29.84C137.436 29.456 137.772 29.0773 138.178 28.704C138.583 28.32 139.09 28 139.698 27.744C140.306 27.488 141.047 27.36 141.922 27.36C142.978 27.36 143.938 27.568 144.802 27.984C145.676 28.3893 146.375 28.9813 146.898 29.76C147.431 30.5387 147.698 31.488 147.698 32.608V44H143.01V33.296C143.01 32.5493 142.738 31.9787 142.194 31.584C141.66 31.1787 141.01 30.976 140.242 30.976C139.74 30.976 139.255 31.0667 138.786 31.248C138.316 31.4293 137.932 31.7067 137.634 32.08C137.346 32.4427 137.202 32.896 137.202 33.44V44H132.53Z" fill="#FFFAF7"/>
<path d="M155.339 36.8C155.328 37.6427 155.461 38.3787 155.739 39.008C156.016 39.6267 156.416 40.1067 156.939 40.448C157.472 40.7787 158.112 40.944 158.859 40.944C159.659 40.944 160.357 40.7733 160.955 40.432C161.563 40.0907 161.984 39.5307 162.219 38.752H166.427C166.245 39.9253 165.776 40.928 165.019 41.76C164.272 42.592 163.365 43.2267 162.299 43.664C161.232 44.1013 160.123 44.32 158.971 44.32C157.339 44.32 155.899 43.9787 154.651 43.296C153.413 42.6027 152.448 41.6267 151.755 40.368C151.061 39.1093 150.715 37.6267 150.715 35.92C150.715 34.2667 151.029 32.7787 151.659 31.456C152.288 30.1227 153.2 29.072 154.395 28.304C155.6 27.5253 157.045 27.136 158.731 27.136C160.416 27.136 161.829 27.4933 162.971 28.208C164.123 28.912 164.987 29.8987 165.563 31.168C166.149 32.4267 166.443 33.8827 166.443 35.536V36.8H155.339ZM155.323 34.016H162.075C162.075 33.3547 161.952 32.7467 161.707 32.192C161.461 31.6373 161.088 31.2 160.587 30.88C160.096 30.56 159.477 30.4 158.731 30.4C158.005 30.4 157.387 30.576 156.875 30.928C156.373 31.2693 155.989 31.7173 155.723 32.272C155.456 32.8267 155.323 33.408 155.323 34.016Z" fill="#FFFAF7"/>
<path d="M174.966 44.288C173.75 44.288 172.785 44.144 172.07 43.856C171.355 43.568 170.827 43.1893 170.486 42.72C170.145 42.24 169.926 41.712 169.83 41.136C169.734 40.5493 169.686 39.9573 169.686 39.36V20.224H174.262V38.784C174.262 39.392 174.39 39.888 174.646 40.272C174.913 40.6453 175.409 40.8747 176.134 40.96L176.918 41.008V43.888C176.598 43.9947 176.273 44.0853 175.942 44.16C175.611 44.2453 175.286 44.288 174.966 44.288Z" fill="#FFFAF7"/>
<path d="M184.904 44.288C183.688 44.288 182.722 44.144 182.008 43.856C181.293 43.568 180.765 43.1893 180.424 42.72C180.082 42.24 179.864 41.712 179.768 41.136C179.672 40.5493 179.624 39.9573 179.624 39.36V20.224H184.2V38.784C184.2 39.392 184.328 39.888 184.584 40.272C184.85 40.6453 185.346 40.8747 186.072 40.96L186.856 41.008V43.888C186.536 43.9947 186.21 44.0853 185.88 44.16C185.549 44.2453 185.224 44.288 184.904 44.288Z" fill="#FFFAF7"/>
</svg>
