<svg width="28" height="28" viewBox="0 0 28 28" fill="none" xmlns="http://www.w3.org/2000/svg">
<path fill-rule="evenodd" clip-rule="evenodd" d="M14 1.16663C6.91246 1.16663 1.16663 6.91246 1.16663 14C1.16663 21.0875 6.91246 26.8333 14 26.8333C21.0875 26.8333 26.8333 21.0875 26.8333 14C26.8333 6.91246 21.0875 1.16663 14 1.16663ZM9.33329 12.8333C9.02387 12.8333 8.72713 12.9562 8.50833 13.175C8.28954 13.3938 8.16663 13.6905 8.16663 14C8.16663 14.3094 8.28954 14.6061 8.50833 14.8249C8.72713 15.0437 9.02387 15.1666 9.33329 15.1666H18.6666C18.976 15.1666 19.2728 15.0437 19.4916 14.8249C19.7104 14.6061 19.8333 14.3094 19.8333 14C19.8333 13.6905 19.7104 13.3938 19.4916 13.175C19.2728 12.9562 18.976 12.8333 18.6666 12.8333H9.33329Z" fill="#FFD88B"/>
</svg>
