<svg width="28" height="28" viewBox="0 0 28 28" fill="none" xmlns="http://www.w3.org/2000/svg">
<path fill-rule="evenodd" clip-rule="evenodd" d="M14 1.16663C6.91246 1.16663 1.16663 6.91246 1.16663 14C1.16663 21.0875 6.91246 26.8333 14 26.8333C21.0875 26.8333 26.8333 21.0875 26.8333 14C26.8333 6.91246 21.0875 1.16663 14 1.16663ZM15.1666 18.6666C15.1666 18.976 15.0437 19.2728 14.8249 19.4916C14.6061 19.7104 14.3094 19.8333 14 19.8333C13.6905 19.8333 13.3938 19.7104 13.175 19.4916C12.9562 19.2728 12.8333 18.976 12.8333 18.6666V15.1666H9.33329C9.02387 15.1666 8.72713 15.0437 8.50833 14.8249C8.28954 14.6061 8.16663 14.3094 8.16663 14C8.16663 13.6905 8.28954 13.3938 8.50833 13.175C8.72713 12.9562 9.02387 12.8333 9.33329 12.8333H12.8333V9.33329C12.8333 9.02387 12.9562 8.72713 13.175 8.50833C13.3938 8.28954 13.6905 8.16663 14 8.16663C14.3094 8.16663 14.6061 8.28954 14.8249 8.50833C15.0437 8.72713 15.1666 9.02387 15.1666 9.33329V12.8333H18.6666C18.976 12.8333 19.2728 12.9562 19.4916 13.175C19.7104 13.3938 19.8333 13.6905 19.8333 14C19.8333 14.3094 19.7104 14.6061 19.4916 14.8249C19.2728 15.0437 18.976 15.1666 18.6666 15.1666H15.1666V18.6666Z" fill="#FFD88B"/>
</svg>
