<svg width="40" height="40" viewBox="0 0 40 40" fill="none" xmlns="http://www.w3.org/2000/svg">
<path d="M29.355 25.8598C31.7758 22.5565 32.86 18.461 32.3908 14.3926C31.9216 10.3243 29.9336 6.58311 26.8245 3.91759C23.7153 1.25207 19.7144 -0.141228 15.6221 0.0164547C11.5299 0.174138 7.64801 1.87117 4.75322 4.76803C1.85843 7.6649 0.164174 11.548 0.00941907 15.6403C-0.145335 19.7327 1.25082 23.7327 3.91857 26.8399C6.58631 29.9471 10.3289 31.9324 14.3976 32.3987C18.4663 32.865 22.561 31.7779 25.8625 29.3548H25.86C25.935 29.4548 26.015 29.5498 26.105 29.6423L35.73 39.2673C36.1988 39.7364 36.8347 40 37.4979 40.0003C38.1611 40.0005 38.7972 39.7373 39.2663 39.2685C39.7354 38.7997 39.9991 38.1638 39.9993 37.5006C39.9995 36.8375 39.7363 36.2014 39.2675 35.7323L29.6425 26.1073C29.5532 26.0168 29.4571 25.9332 29.355 25.8573V25.8598ZM30 16.2498C30 18.0554 29.6444 19.8434 28.9534 21.5117C28.2624 23.1799 27.2496 24.6957 25.9728 25.9725C24.696 27.2493 23.1802 28.2621 21.5119 28.9531C19.8437 29.6441 18.0557 29.9998 16.25 29.9998C14.4444 29.9998 12.6564 29.6441 10.9881 28.9531C9.31992 28.2621 7.80413 27.2493 6.52733 25.9725C5.25052 24.6957 4.23771 23.1799 3.5467 21.5117C2.8557 19.8434 2.50005 18.0554 2.50005 16.2498C2.50005 12.603 3.9487 9.10567 6.52733 6.52705C9.10595 3.94842 12.6033 2.49976 16.25 2.49976C19.8968 2.49976 23.3941 3.94842 25.9728 6.52705C28.5514 9.10567 30 12.603 30 16.2498Z" fill="#1B1B1B"/>
</svg>
