<svg width="48" height="48" viewBox="0 0 48 48" fill="none" xmlns="http://www.w3.org/2000/svg">
<path fill-rule="evenodd" clip-rule="evenodd" d="M24 48C37.2548 48 48 37.2548 48 24C48 10.7452 37.2548 0 24 0C10.7452 0 0 10.7452 0 24C0 37.2548 10.7452 48 24 48ZM34.8719 17.0706C35.9692 16.9391 37.013 16.6482 37.9846 16.2176L37.9823 16.2211C37.2549 17.309 36.3396 18.2586 35.2792 19.0255C35.2896 19.2582 35.2954 19.4933 35.2954 19.726C35.2954 26.8893 29.8438 35.1488 19.8714 35.1488C16.9255 35.1521 14.041 34.3066 11.5631 32.7133C11.9926 32.7638 12.4246 32.7891 12.857 32.789C15.2982 32.7926 17.6697 31.9749 19.5898 30.4675C18.4587 30.4468 17.3623 30.0728 16.4543 29.3981C15.5462 28.7233 14.8719 27.7814 14.5257 26.7043C15.3383 26.8592 16.1755 26.8273 16.974 26.6112C15.747 26.3633 14.6436 25.6985 13.851 24.7296C13.0584 23.7608 12.6254 22.5475 12.6255 21.2957V21.2259C13.3782 21.6443 14.22 21.8769 15.0808 21.9043C14.3385 21.4087 13.7301 20.7374 13.3096 19.9503C12.889 19.1631 12.6692 18.2842 12.6697 17.3917C12.6697 16.4003 12.9373 15.4694 13.4028 14.6665C14.7641 16.3412 16.4622 17.7109 18.3871 18.6868C20.312 19.6626 22.4206 20.2229 24.576 20.3311C24.3032 19.1683 24.4219 17.948 24.9137 16.8596C25.4054 15.7712 26.2428 14.8756 27.2957 14.3119C28.3486 13.7481 29.5582 13.5478 30.7367 13.742C31.9152 13.9361 32.9965 14.5139 33.813 15.3856C35.027 15.1473 36.1913 14.7026 37.255 14.0707C36.8512 15.3268 36.0041 16.3931 34.8719 17.0706Z" fill="#FFFAF7"/>
</svg>
