<svg width="22" height="22" viewBox="0 0 22 22" fill="none" xmlns="http://www.w3.org/2000/svg">
<path d="M0.461565 0.461565C0.607505 0.315255 0.780876 0.199174 0.971748 0.119971C1.16262 0.0407677 1.36724 0 1.57389 0C1.78055 0 1.98517 0.0407677 2.17604 0.119971C2.36691 0.199174 2.54028 0.315255 2.68622 0.461565L11.0004 8.7789L19.3146 0.461565C19.4607 0.315492 19.6341 0.19962 19.8249 0.120566C20.0158 0.0415114 20.2204 0.000822569 20.4269 0.000822569C20.6335 0.000822569 20.8381 0.0415114 21.0289 0.120566C21.2198 0.19962 21.3932 0.315492 21.5393 0.461565C21.6853 0.607638 21.8012 0.781052 21.8803 0.971905C21.9593 1.16276 22 1.36732 22 1.57389C22 1.78047 21.9593 1.98503 21.8803 2.17588C21.8012 2.36674 21.6853 2.54015 21.5393 2.68622L13.2219 11.0004L21.5393 19.3146C21.6853 19.4607 21.8012 19.6341 21.8803 19.8249C21.9593 20.0158 22 20.2204 22 20.4269C22 20.6335 21.9593 20.8381 21.8803 21.0289C21.8012 21.2198 21.6853 21.3932 21.5393 21.5393C21.3932 21.6853 21.2198 21.8012 21.0289 21.8803C20.8381 21.9593 20.6335 22 20.4269 22C20.2204 22 20.0158 21.9593 19.8249 21.8803C19.6341 21.8012 19.4607 21.6853 19.3146 21.5393L11.0004 13.2219L2.68622 21.5393C2.54015 21.6853 2.36674 21.8012 2.17588 21.8803C1.98503 21.9593 1.78047 22 1.57389 22C1.36732 22 1.16276 21.9593 0.971905 21.8803C0.781052 21.8012 0.607638 21.6853 0.461565 21.5393C0.315492 21.3932 0.19962 21.2198 0.120566 21.0289C0.0415114 20.8381 0.000822569 20.6335 0.000822569 20.4269C0.000822569 20.2204 0.0415114 20.0158 0.120566 19.8249C0.19962 19.6341 0.315492 19.4607 0.461565 19.3146L8.7789 11.0004L0.461565 2.68622C0.315255 2.54028 0.199174 2.36691 0.119971 2.17604C0.0407677 1.98517 0 1.78055 0 1.57389C0 1.36724 0.0407677 1.16262 0.119971 0.971748C0.199174 0.780876 0.315255 0.607505 0.461565 0.461565Z" fill="#FFFAF6"/>
</svg>
